<?xml version="1.0" encoding="UTF-8"?>
<svg width="118px" height="28px" viewBox="0 0 118 28" version="1.1" xmlns="http://www.w3.org/2000/svg" xmlns:xlink="http://www.w3.org/1999/xlink">
    <!-- Generator: Sketch 50.2 (55047) - http://www.bohemiancoding.com/sketch -->
    <title>Logo@1.5x</title>
    <desc>Created with Sketch.</desc>
    <defs>
        <polygon id="path-1" points="0.00702380952 0.0725666667 117.063492 0.0725666667 117.063492 27.993 0.00702380952 27.993"></polygon>
    </defs>
    <g id="Desktop" stroke="none" stroke-width="1" fill="none" fill-rule="evenodd">
        <g id="overview" transform="translate(-375.000000, -14.000000)">
            <g id="UI/header">
                <g id="Logo" transform="translate(375.000000, 14.000000)">
                    <mask id="mask-2" fill="white">
                        <use xlink:href="#path-1"></use>
                    </mask>
                    <g id="Mask"></g>
                    <g id="UI/logo/Lametric" mask="url(#mask-2)" fill="#000000">
                        <path d="M33.5680734,25.6659667 L33.5680734,0.135566667 L31.4016964,0.135566667 L31.4016964,27.7968833 L40.2721825,27.7968833 L40.2721825,25.6659667 L33.5680734,25.6659667 Z M44.2533948,21.3193167 C44.2533948,21.056 44.3420119,20.8229 44.4298095,20.6178 C44.5466389,20.4730167 44.6638194,20.3263667 44.8099147,20.2400333 C44.9268611,20.12325 44.9855099,20.0930333 44.9855099,20.0930333 L48.1473948,18.2838833 C48.1473948,18.2838833 48.2353095,18.2558833 48.3824583,18.1391 C48.5276171,18.05055 48.6748829,17.9058833 48.8504782,17.7591167 L48.8504782,23.56515 C48.8504782,24.0032333 48.7335317,24.38345 48.5276171,24.7326333 C48.3238095,25.0826333 48.0597143,25.3743 47.7380238,25.5490667 C47.3575675,25.7541667 46.9764087,25.8707167 46.5367183,25.8707167 C46.1272302,25.8707167 45.7470079,25.7541667 45.3951151,25.5490667 C45.0439246,25.3743 44.7807659,25.0826333 44.5466389,24.7326333 C44.3703413,24.38345 44.2533948,24.0032333 44.2533948,23.56515 L44.2533948,21.3193167 Z M50.9877063,11.7777333 C50.9877063,10.9897667 50.7830794,10.29 50.4310694,9.64868333 C50.0214643,9.0356 49.5241786,8.53906667 48.9088929,8.16013333 C48.2937242,7.78108333 47.5614921,7.60631667 46.8010476,7.5761 C46.0102837,7.60631667 45.308254,7.78108333 44.6929683,8.16013333 C44.0495873,8.53906667 43.551248,9.0356 43.1699722,9.64868333 C42.8191329,10.29 42.6141548,10.9897667 42.6141548,11.7777333 L42.6141548,14.3750833 L44.7515,14.1418667 L44.7515,11.7777333 C44.7515,11.3986833 44.8392976,11.0198667 45.0157123,10.7282 C45.1911905,10.40655 45.4534127,10.17345 45.7762738,9.99845 C46.0685813,9.82368333 46.4197718,9.70701667 46.8010476,9.70701667 C47.1822063,9.70701667 47.5331627,9.82368333 47.8548532,9.99845 C48.1473948,10.17345 48.4106706,10.40655 48.5579365,10.7282 C48.761744,11.0198667 48.8504782,11.3986833 48.8504782,11.7777333 L48.8504782,13.7618833 C48.8504782,14.2002 48.7335317,14.5500833 48.5579365,14.9003167 C48.4106706,15.2201 48.2060437,15.5135167 47.9720337,15.7467333 C47.7380238,15.9496167 47.5331627,16.12485 47.3575675,16.2712667 C47.1822063,16.3881667 47.0934722,16.41815 47.0934722,16.41815 L43.9022044,18.2558833 C43.9022044,18.2558833 43.8145238,18.31375 43.6389286,18.4584167 C43.4634504,18.5469667 43.228504,18.7523 43.0249306,19.0136333 C42.78975,19.24685 42.5558571,19.5986 42.3802619,19.9763667 C42.2340496,20.3564667 42.1171032,20.7946667 42.1171032,21.3193167 L42.1171032,23.56515 C42.1171032,24.4111 42.3511131,25.1412 42.7018353,25.8127333 C43.0832282,26.4836833 43.6389286,27.00845 44.3116925,27.4169 C44.9855099,27.7968833 45.7470079,27.9998833 46.5367183,27.9998833 C47.152004,27.9998833 47.6784385,27.9130833 48.1766607,27.6799833 C48.7030952,27.5052167 49.1722857,27.2115667 49.5523909,26.8335667 C49.8449325,27.1252333 50.1385278,27.3886667 50.51875,27.53345 C50.8695893,27.7082167 51.2803651,27.7968833 51.719002,27.7968833 L51.719002,25.6659667 C51.5141409,25.6659667 51.3386627,25.57905 51.2217163,25.4325167 C51.0753869,25.3159667 50.9877063,25.1412 50.9877063,24.90775 L50.9877063,11.7777333 Z M68.3486905,4.39565 L68.4071052,4.39565 L68.4071052,27.7968833 L70.5433968,27.7968833 L70.5433968,0.135566667 L67.2937143,0.135566667 L62.698621,24.528 L62.6096528,24.528 L58.0719206,0.135566667 L54.851621,0.135566667 L54.851621,27.7968833 L56.9888492,27.7968833 L56.9888492,4.60075 L57.0765298,4.60075 L61.4681667,27.7968833 L63.898756,27.7968833 L68.3486905,4.39565 Z M80.8493155,21.2025333 L80.8493155,23.56515 C80.8493155,24.0032333 80.7615179,24.38345 80.5568909,24.7326333 C80.3512103,25.0826333 80.0586687,25.3743 79.7368611,25.5490667 C79.3848512,25.7541667 79.0053313,25.8707167 78.565875,25.8707167 C78.1261845,25.8707167 77.7459623,25.7541667 77.3948889,25.5490667 C77.0733155,25.3743 76.7806567,25.0826333 76.5749762,24.7326333 C76.369998,24.38345 76.2823175,24.0032333 76.2531687,23.56515 L76.2531687,18.1673333 L82.9865437,18.1673333 L82.9865437,12.01095 C82.9865437,11.19475 82.8109484,10.4358333 82.4005238,9.76523333 C82.0201845,9.12298333 81.4646012,8.59728333 80.7907837,8.1893 C80.1472857,7.80943333 79.3848512,7.60631667 78.565875,7.5761 C77.7459623,7.60631667 76.9844643,7.80943333 76.3118175,8.1893 C75.6671488,8.59728333 75.1405972,9.12298333 74.7312262,9.76523333 C74.3498333,10.4358333 74.1159405,11.19475 74.1159405,12.01095 L74.1159405,23.56515 C74.1159405,24.4111 74.3498333,25.1412 74.7312262,25.8127333 C75.1405972,26.4836833 75.6671488,27.00845 76.3118175,27.4169 C76.9844643,27.7968833 77.7459623,27.9998833 78.565875,27.9998833 C79.3848512,27.9998833 80.1472857,27.7968833 80.7907837,27.4169 C81.4646012,27.00845 82.0201845,26.4836833 82.4005238,25.8127333 C82.8109484,25.1412 82.9865437,24.4111 82.9865437,23.56515 L82.9865437,20.93945 L80.8493155,21.2025333 Z M76.2531687,12.01095 C76.2823175,11.5736833 76.369998,11.19475 76.5749762,10.8729833 C76.7806567,10.5232167 77.0733155,10.2319 77.3948889,10.0569 C77.7459623,9.82368333 78.1261845,9.73536667 78.565875,9.70701667 C79.0053313,9.73536667 79.3848512,9.82368333 79.7368611,10.0569 C80.0586687,10.2319 80.3512103,10.5232167 80.5568909,10.8729833 C80.7615179,11.19475 80.8493155,11.5736833 80.8493155,12.01095 L80.8493155,16.0381667 L76.2531687,16.0381667 L76.2531687,12.01095 Z M84.860379,9.94023333 L87.4363611,9.94023333 L87.4363611,25.0542833 C87.465744,25.6074 87.5826905,26.10405 87.8469028,26.54225 C88.1093591,26.9784667 88.4321032,27.3583333 88.900006,27.5914333 C89.3398135,27.8551 89.8379187,27.9998833 90.3937361,27.9998833 L90.3937361,25.8707167 C90.1587897,25.8707167 89.9833115,25.7822833 89.8077163,25.6376167 C89.6907698,25.46285 89.6030893,25.2880833 89.5738234,25.0542833 L89.5738234,9.94023333 L92.1798909,9.94023333 L92.1798909,7.80943333 L89.5738234,7.80943333 L89.5738234,3.696 L87.4363611,3.9585 L87.4363611,7.80943333 L84.860379,7.80943333 L84.860379,9.94023333 Z M100.611389,7.5761 C99.4981151,7.60631667 98.5901706,7.75098333 97.8879067,8.07263333 C97.1862282,8.39323333 96.6596766,8.8305 96.306379,9.35608333 L95.9273274,7.80943333 L94.4632143,7.80943333 L94.4632143,27.7968833 L96.5990377,27.7968833 L96.5990377,12.2451 C96.5990377,11.7495 96.7179742,11.3404667 96.9215476,10.9313167 C97.1559087,10.58155 97.4202381,10.26095 97.8294921,10.0569 C98.1805655,9.85191667 98.5901706,9.73536667 99.0882758,9.70701667 L100.611389,9.70701667 L100.611389,7.5761 Z M102.747329,27.7968833 L104.885728,27.7968833 L104.885728,5.24218333 L102.747329,5.24218333 L102.747329,27.7968833 Z M102.747329,2.93696667 L104.885728,2.93696667 L104.885728,0.0774666667 L102.747329,0.0774666667 L102.747329,2.93696667 Z M114.955764,21.2025333 L114.955764,23.56515 C114.927552,24.0032333 114.838583,24.38345 114.604573,24.7326333 C114.401,25.0826333 114.136788,25.3743 113.785714,25.5490667 C113.463087,25.7541667 113.053248,25.8707167 112.643994,25.8707167 C112.204069,25.8707167 111.822794,25.7541667 111.472071,25.5490667 C111.120998,25.3743 110.856903,25.0826333 110.653095,24.7326333 C110.447063,24.38345 110.330351,24.0032333 110.330351,23.56515 L110.330351,12.01095 C110.330351,11.5736833 110.447063,11.19475 110.653095,10.8729833 C110.856903,10.5232167 111.120998,10.2319 111.472071,10.0569 C111.822794,9.82368333 112.204069,9.73536667 112.643994,9.70701667 C113.053248,9.73536667 113.463087,9.82368333 113.785714,10.0569 C114.136788,10.2319 114.401,10.5232167 114.604573,10.8729833 C114.838583,11.19475 114.927552,11.5736833 114.955764,12.01095 L114.955764,14.6083 L117.063492,14.3460333 L117.063492,12.01095 C117.063492,11.19475 116.859685,10.4358333 116.450431,9.76523333 C116.069038,9.12298333 115.54272,8.59728333 114.897232,8.1893 C114.225639,7.80943333 113.463087,7.60631667 112.643994,7.5761 C111.794815,7.60631667 111.03402,7.80943333 110.388649,8.1893 C109.715065,8.59728333 109.18828,9.12298333 108.809228,9.76523333 C108.39775,10.4358333 108.193825,11.19475 108.193825,12.01095 L108.193825,23.56515 C108.193825,24.4111 108.39775,25.1412 108.809228,25.8127333 C109.18828,26.4836833 109.715065,27.00845 110.388649,27.4169 C111.03402,27.7968833 111.794815,27.9998833 112.643994,27.9998833 C113.463087,27.9998833 114.225639,27.7968833 114.897232,27.4169 C115.54272,27.00845 116.069038,26.4836833 116.450431,25.8127333 C116.859685,25.1412 117.063492,24.4111 117.063492,23.56515 L117.063492,21.2025333 L114.955764,21.2025333 Z" id="Fill-1"></path>
                        <path d="M20.0210179,24.3616333 L20.0210179,7.70291667 L17.8470317,7.70291667 L17.8470317,25.3691667 C17.0107302,25.6461333 16.007379,25.8372333 15.1711944,25.9263667 L15.1711944,16.2029 L12.9972083,16.2029 L12.9972083,25.9387333 C11.8265734,25.8503 10.8231052,25.6317833 9.98692063,25.2977667 L9.98692063,7.70291667 L7.64565079,7.70291667 L7.64565079,24.23855 C4.30102976,22.13505 1.92066071,18.3402333 1.92066071,14.00735 C1.92066071,7.39141667 7.32302381,2.02813333 13.9612262,2.02813333 C20.5996627,2.02813333 25.9902024,7.39141667 25.9902024,14.00735 C25.9902024,18.4276167 23.5329226,22.2857833 20.0210179,24.3616333 Z M13.9820635,0.0725666667 C6.25997024,0.0725666667 0,6.31108333 0,14.00735 C0,21.70315 6.25997024,27.9416667 13.9820635,27.9416667 C21.7042738,27.9416667 27.964127,21.70315 27.964127,14.00735 C27.964127,6.31108333 21.7042738,0.0725666667 13.9820635,0.0725666667 Z" id="Fill-3"></path>
                    </g>
                </g>
            </g>
        </g>
    </g>
</svg>